<svg xmlns="http://www.w3.org/2000/svg" xmlns:xlink="http://www.w3.org/1999/xlink" xmlns:lucid="lucid" width="3632.91" height="602.84"><g transform="translate(1704.7490992079713 351.75339173458406)" lucid:page-tab-id="0_0"><path d="M-1703.25-342.25a8 8 0 0 1 8-8h3613.9a8 8 0 0 1 8 8V241.6a8 8 0 0 1-8 8h-3613.9a8 8 0 0 1-8-8z" stroke="#000" stroke-width="3" fill-opacity="0"/><path d="M-1503.25-226.16c22.1 0 40 17.9 40 40s-17.9 40-40 40h-80c-22.1 0-40-17.9-40-40s17.9-40 40-40z" stroke="#1071e5" stroke-width="3" fill="#fff"/><use xlink:href="#a" transform="matrix(1,0,0,1,-1618.2490992079713,-221.1637569833071) translate(49.70068359375001 43.16460503472222)"/><path d="M-1383.25-238.66a8 8 0 0 1 8-8h145a8 8 0 0 1 8 8v105a8 8 0 0 1-8 8h-145a8 8 0 0 1-8-8z" stroke="#3a414a" fill="#00c2a8"/><use xlink:href="#b" transform="matrix(1,0,0,1,-1371.2490992079713,-234.6637569833071) translate(33.81412760416667 21.74305555555555)"/><use xlink:href="#c" transform="matrix(1,0,0,1,-1371.2490992079713,-234.6637569833071) translate(27.05777994791668 48.899956597222214)"/><use xlink:href="#d" transform="matrix(1,0,0,1,-1371.2490992079713,-234.6637569833071) translate(1.3091362847222427 76.05685763888887)"/><use xlink:href="#e" transform="matrix(1,0,0,1,-1371.2490992079713,-234.6637569833071) translate(96.08430989583333 76.05685763888887)"/><use xlink:href="#f" transform="matrix(1,0,0,1,-1371.2490992079713,-234.6637569833071) translate(16.79996744791668 103.21375868055554)"/><path d="M-1142.25-238.66a8 8 0 0 1 8-8h145a8 8 0 0 1 8 8v105a8 8 0 0 1-8 8h-145a8 8 0 0 1-8-8z" stroke="#3a414a" fill="#00c2a8"/><use xlink:href="#g" transform="matrix(1,0,0,1,-1130.2490992079713,-234.6637569833071) translate(12.3395724826389 29.507703993055557)"/><use xlink:href="#h" transform="matrix(1,0,0,1,-1130.2490992079713,-234.6637569833071) translate(88.02381727430556 29.507703993055557)"/><use xlink:href="#i" transform="matrix(1,0,0,1,-1130.2490992079713,-234.6637569833071) translate(0.9803602430555713 56.66460503472222)"/><use xlink:href="#j" transform="matrix(1,0,0,1,-1130.2490992079713,-234.6637569833071) translate(54.84483506944445 56.66460503472222)"/><use xlink:href="#k" transform="matrix(1,0,0,1,-1130.2490992079713,-234.6637569833071) translate(90.71430121527777 56.66460503472222)"/><use xlink:href="#l" transform="matrix(1,0,0,1,-1130.2490992079713,-234.6637569833071) translate(39.94580078125001 83.82150607638889)"/><path d="M-901.25-238.66a8 8 0 0 1 8-8h145a8 8 0 0 1 8 8v105a8 8 0 0 1-8 8h-145a8 8 0 0 1-8-8z" stroke="#3a414a" fill="#00c2a8"/><use xlink:href="#m" transform="matrix(1,0,0,1,-889.2490992079713,-234.6637569833071) translate(9.654568142361121 29.507703993055557)"/><use xlink:href="#n" transform="matrix(1,0,0,1,-889.2490992079713,-234.6637569833071) translate(53.28314887152778 29.507703993055557)"/><use xlink:href="#o" transform="matrix(1,0,0,1,-889.2490992079713,-234.6637569833071) translate(108.64903428819443 29.507703993055557)"/><use xlink:href="#p" transform="matrix(1,0,0,1,-889.2490992079713,-234.6637569833071) translate(51.65022786458334 56.66460503472222)"/><use xlink:href="#q" transform="matrix(1,0,0,1,-889.2490992079713,-234.6637569833071) translate(19.693196614583343 83.82150607638889)"/><path d="M-660.25-238.66a8 8 0 0 1 8-8h145a8 8 0 0 1 8 8v105a8 8 0 0 1-8 8h-145a8 8 0 0 1-8-8z" stroke="#3a414a" fill="#00c2a8"/><use xlink:href="#r" transform="matrix(1,0,0,1,-648.2490992079713,-234.6637569833071) translate(5.994194878472236 43.086154513888886)"/><use xlink:href="#s" transform="matrix(1,0,0,1,-648.2490992079713,-234.6637569833071) translate(80.13319227430554 43.086154513888886)"/><use xlink:href="#t" transform="matrix(1,0,0,1,-648.2490992079713,-234.6637569833071) translate(43.97330729166667 70.24305555555554)"/><path d="M-345.65-241.36a10.67 10.67 0 0 1 12.8 0l67.2 50.4a6 6 0 0 1 0 9.6l-67.2 50.4a10.67 10.67 0 0 1-12.8 0l-67.2-50.4a6 6 0 0 1 0-9.6z" stroke="#3a414a" fill="#6db1ff"/><use xlink:href="#u" transform="matrix(1,0,0,1,-414.2490992079713,-241.1637569833071) translate(47.70610894097223 36.00770399305556)"/><use xlink:href="#v" transform="matrix(1,0,0,1,-414.2490992079713,-241.1637569833071) translate(0.8664822048611427 63.16460503472222)"/><use xlink:href="#w" transform="matrix(1,0,0,1,-414.2490992079713,-241.1637569833071) translate(109.04475911458333 63.16460503472222)"/><use xlink:href="#x" transform="matrix(1,0,0,1,-414.2490992079713,-241.1637569833071) translate(22.02322048611112 90.32150607638889)"/><use xlink:href="#y" transform="matrix(1,0,0,1,-414.2490992079713,-241.1637569833071) translate(72.75336371527777 90.32150607638889)"/><path d="M-179.25-238.66a8 8 0 0 1 8-8h145a8 8 0 0 1 8 8v105a8 8 0 0 1-8 8h-145a8 8 0 0 1-8-8z" stroke="#3a414a" fill="#00c2a8"/><use xlink:href="#z" transform="matrix(1,0,0,1,-167.2490992079713,-234.6637569833071) translate(15.320475260416671 29.507703993055557)"/><use xlink:href="#A" transform="matrix(1,0,0,1,-167.2490992079713,-234.6637569833071) translate(75.39881727430554 29.507703993055557)"/><use xlink:href="#B" transform="matrix(1,0,0,1,-167.2490992079713,-234.6637569833071) translate(27.101616753472236 56.66460503472222)"/><use xlink:href="#C" transform="matrix(1,0,0,1,-167.2490992079713,-234.6637569833071) translate(70.62060546875 56.66460503472222)"/><use xlink:href="#D" transform="matrix(1,0,0,1,-167.2490992079713,-234.6637569833071) translate(10.876519097222243 83.82150607638889)"/><path d="M61.75-262.25a8 8 0 0 1 8-8H264.3a8 8 0 0 1 8 8v152.18a8 8 0 0 1-8 8H69.75a8 8 0 0 1-8-8z" stroke="#3a414a" fill="#00c2a8"/><use xlink:href="#g" transform="matrix(1,0,0,1,73.75090079202869,-258.25339173458406) translate(28.106445312500014 53.50770399305556)"/><use xlink:href="#E" transform="matrix(1,0,0,1,73.75090079202869,-258.25339173458406) translate(103.79069010416667 53.50770399305556)"/><use xlink:href="#F" transform="matrix(1,0,0,1,73.75090079202869,-258.25339173458406) translate(9.459364149305571 80.66460503472223)"/><use xlink:href="#G" transform="matrix(1,0,0,1,73.75090079202869,-258.25339173458406) translate(65.96500651041667 80.66460503472223)"/><use xlink:href="#H" transform="matrix(1,0,0,1,73.75090079202869,-258.25339173458406) translate(129.98866102430554 80.66460503472223)"/><use xlink:href="#j" transform="matrix(1,0,0,1,73.75090079202869,-258.25339173458406) translate(3.9797634548611285 107.82150607638889)"/><use xlink:href="#I" transform="matrix(1,0,0,1,73.75090079202869,-258.25339173458406) translate(39.84922960069445 107.82150607638889)"/><use xlink:href="#J" transform="matrix(1,0,0,1,73.75090079202869,-258.25339173458406) translate(98.16314019097221 107.82150607638889)"/><use xlink:href="#K" transform="matrix(1,0,0,1,73.75090079202869,-258.25339173458406) translate(150.75634765625 107.82150607638889)"/><path d="M425.9-241.36a10.67 10.67 0 0 1 12.8 0l67.2 50.4a6 6 0 0 1 0 9.6l-67.2 50.4a10.67 10.67 0 0 1-12.8 0l-67.2-50.4a6 6 0 0 1 0-9.6z" stroke="#3a414a" fill="#6db1ff"/><use xlink:href="#L" transform="matrix(1,0,0,1,357.30348252683166,-241.1637569833071) translate(16.99842664930557 49.586154513888886)"/><use xlink:href="#E" transform="matrix(1,0,0,1,357.30348252683166,-241.1637569833071) translate(77.89870876736111 49.586154513888886)"/><use xlink:href="#G" transform="matrix(1,0,0,1,357.30348252683166,-241.1637569833071) translate(12.066786024305571 76.74305555555554)"/><use xlink:href="#M" transform="matrix(1,0,0,1,357.30348252683166,-241.1637569833071) translate(76.09044053819444 76.74305555555554)"/><path d="M632.7-238.66a8 8 0 0 1 8-8h145a8 8 0 0 1 8 8v105a8 8 0 0 1-8 8h-145a8 8 0 0 1-8-8z" stroke="#3a414a" fill="#00c2a8"/><use xlink:href="#N" transform="matrix(1,0,0,1,644.7037506025029,-234.6637569833071) translate(2.4982096354166856 29.507703993055557)"/><use xlink:href="#E" transform="matrix(1,0,0,1,644.7037506025029,-234.6637569833071) translate(79.39892578125 29.507703993055557)"/><use xlink:href="#G" transform="matrix(1,0,0,1,644.7037506025029,-234.6637569833071) translate(16.684895833333343 56.66460503472222)"/><use xlink:href="#e" transform="matrix(1,0,0,1,644.7037506025029,-234.6637569833071) translate(80.70855034722221 56.66460503472222)"/><use xlink:href="#O" transform="matrix(1,0,0,1,644.7037506025029,-234.6637569833071) translate(13.013563368055571 83.82150607638889)"/><use xlink:href="#P" transform="matrix(1,0,0,1,644.7037506025029,-234.6637569833071) translate(75.13031684027777 83.82150607638889)"/><path d="M914.1-238.66a8 8 0 0 1 8-8h145a8 8 0 0 1 8 8v105a8 8 0 0 1-8 8h-145a8 8 0 0 1-8-8z" stroke="#3a414a" fill="#00c2a8"/><use xlink:href="#z" transform="matrix(1,0,0,1,926.1040186781745,-234.6637569833071) translate(15.260199652777786 29.507703993055557)"/><use xlink:href="#Q" transform="matrix(1,0,0,1,926.1040186781745,-234.6637569833071) translate(75.33854166666666 29.507703993055557)"/><use xlink:href="#R" transform="matrix(1,0,0,1,926.1040186781745,-234.6637569833071) translate(13.040961371527786 56.66460503472222)"/><use xlink:href="#E" transform="matrix(1,0,0,1,926.1040186781745,-234.6637569833071) translate(68.85617404513889 56.66460503472222)"/><use xlink:href="#S" transform="matrix(1,0,0,1,926.1040186781745,-234.6637569833071) translate(39.644422743055564 83.82150607638889)"/><path d="M1155.1-238.66a8 8 0 0 1 8-8h145a8 8 0 0 1 8 8v105a8 8 0 0 1-8 8h-145a8 8 0 0 1-8-8z" stroke="#3a414a" fill="#00c2a8"/><use xlink:href="#T" transform="matrix(1,0,0,1,1167.1040186781745,-234.6637569833071) translate(13.013563368055571 21.74305555555555)"/><use xlink:href="#U" transform="matrix(1,0,0,1,1167.1040186781745,-234.6637569833071) translate(75.13031684027777 21.74305555555555)"/><use xlink:href="#V" transform="matrix(1,0,0,1,1167.1040186781745,-234.6637569833071) translate(29.956488715277786 48.899956597222214)"/><use xlink:href="#W" transform="matrix(1,0,0,1,1167.1040186781745,-234.6637569833071) translate(56.850368923611114 48.899956597222214)"/><use xlink:href="#X" transform="matrix(1,0,0,1,1167.1040186781745,-234.6637569833071) translate(18.323296440972236 76.05685763888887)"/><use xlink:href="#S" transform="matrix(1,0,0,1,1167.1040186781745,-234.6637569833071) translate(39.644422743055564 103.21375868055554)"/><path d="M1396.1-262.25a8 8 0 0 1 8-8h194.56a8 8 0 0 1 8 8v152.18a8 8 0 0 1-8 8H1404.1a8 8 0 0 1-8-8z" stroke="#3a414a" fill="#00c2a8"/><use xlink:href="#Y" transform="matrix(1,0,0,1,1408.1040186781745,-258.25339173458406) translate(14.577311197916686 53.50770399305556)"/><use xlink:href="#Z" transform="matrix(1,0,0,1,1408.1040186781745,-258.25339173458406) translate(70.06374782986111 53.50770399305556)"/><use xlink:href="#aa" transform="matrix(1,0,0,1,1408.1040186781745,-258.25339173458406) translate(8.379882812500014 80.66460503472223)"/><use xlink:href="#F" transform="matrix(1,0,0,1,1408.1040186781745,-258.25339173458406) translate(69.79524739583334 80.66460503472223)"/><use xlink:href="#ab" transform="matrix(1,0,0,1,1408.1040186781745,-258.25339173458406) translate(126.30088975694444 80.66460503472223)"/><use xlink:href="#ac" transform="matrix(1,0,0,1,1408.1040186781745,-258.25339173458406) translate(53.1208224826389 107.82150607638889)"/><path d="M592.3-14.07a8 8 0 0 1 8-8h225.8a8 8 0 0 1 8 8V161.6a8 8 0 0 1-8 8H600.3a8 8 0 0 1-8-8z" stroke="#3a414a" fill="#00c2a8"/><use xlink:href="#Y" transform="matrix(1,0,0,1,604.3034825268317,-10.074122232030163) translate(30.077311197916686 51.42925347222222)"/><use xlink:href="#Z" transform="matrix(1,0,0,1,604.3034825268317,-10.074122232030163) translate(85.56374782986111 51.42925347222222)"/><use xlink:href="#aa" transform="matrix(1,0,0,1,604.3034825268317,-10.074122232030163) translate(23.879882812500014 78.58615451388889)"/><use xlink:href="#F" transform="matrix(1,0,0,1,604.3034825268317,-10.074122232030163) translate(85.29524739583334 78.58615451388889)"/><use xlink:href="#ab" transform="matrix(1,0,0,1,604.3034825268317,-10.074122232030163) translate(141.80088975694446 78.58615451388889)"/><use xlink:href="#ad" transform="matrix(1,0,0,1,604.3034825268317,-10.074122232030163) translate(32.82259114583334 105.74305555555554)"/><use xlink:href="#ae" transform="matrix(1,0,0,1,604.3034825268317,-10.074122232030163) translate(117.62489149305556 105.74305555555554)"/><use xlink:href="#af" transform="matrix(1,0,0,1,604.3034825268317,-10.074122232030163) translate(54.52728949652779 132.8999565972222)"/><path d="M1806.66-226.16c22.1 0 40 17.9 40 40s-17.9 40-40 40h-80c-22.1 0-40-17.9-40-40s17.9-40 40-40z" stroke="#1071e5" stroke-width="3" fill="#fff"/><use xlink:href="#ag" transform="matrix(1,0,0,1,1691.6566004129775,-221.1637569833071) translate(54.752875434027786 43.16460503472222)"/><path d="M-1461.25-186.16h61.12" stroke="#3a414a" fill="none"/><path d="M-1461.23-185.7h-.55l.03-.44-.02-.5h.54z" stroke="#3a414a" stroke-width=".05" fill="#3a414a"/><path d="M-1385.37-186.16l-14.26 4.63v-9.27z" stroke="#3a414a" fill="#3a414a"/><path d="M-1221.25-186.16h62.12" stroke="#3a414a" fill="none"/><path d="M-1221.24-185.7h-.5v-.94h.5z" stroke="#3a414a" stroke-width=".05" fill="#3a414a"/><path d="M-1144.37-186.16l-14.26 4.63v-9.27z" stroke="#3a414a" fill="#3a414a"/><path d="M-980.25-186.16h62.12" stroke="#3a414a" fill="none"/><path d="M-980.24-185.7h-.5v-.94h.5z" stroke="#3a414a" stroke-width=".05" fill="#3a414a"/><path d="M-903.37-186.16l-14.26 4.63v-9.27z" stroke="#3a414a" fill="#3a414a"/><path d="M-739.25-186.16h62.12" stroke="#3a414a" fill="none"/><path d="M-739.24-185.7h-.5v-.94h.5z" stroke="#3a414a" stroke-width=".05" fill="#3a414a"/><path d="M-662.37-186.16l-14.26 4.63v-9.27z" stroke="#3a414a" fill="#3a414a"/><path d="M-498.25-199.5h79.56" stroke="#3a414a" fill="none"/><path d="M-498.24-199.02h-.5v-.95h.5z" stroke="#3a414a" stroke-width=".05" fill="#3a414a"/><path d="M-403.92-199.5l-14.27 4.64v-9.27z" stroke="#3a414a" fill="#3a414a"/><path d="M-240.47-185.2h-21.28v-1.94h21.28zm42.22 0h-3.78v-1.94h3.78z" stroke="#54c45e" stroke-width=".05" fill="#54c45e"/><path d="M-261.72-185.2h-1.12l.1-.96-.1-.98h1.12z" fill="#54c45e"/><path stroke="#54c45e" stroke-width=".05" fill="#54c45e"/><path d="M-183-186.16l-14.25 4.63v-9.27z" fill="#54c45e"/><path d="M-179.83-186.16l-18.4 5.97v-11.94zm-16.45 3.3l10.14-3.3-10.14-3.3z" stroke="#54c45e" stroke-width=".05" fill="#54c45e"/><g><use xlink:href="#ah" transform="matrix(1,0,0,1,-240.4704560105034,-199.74220750414045) translate(0.004999999999999005 21.74305555555555)"/></g><path d="M-401.33-144.8l-.16 2-.46 1.98-.78 1.88-1.06 1.74-1.33 1.55-1.55 1.32-1.73 1.06-1.9.78-1.97.5-2 .15h-21.07v-1.96h21l1.76-.14 1.68-.4 1.6-.67 1.47-.9 1.32-1.14 1.1-1.3.92-1.5.66-1.58.4-1.7.14-1.75v-26.96h1.95zm-67.9-28.85l2 .48 1.87.78 1.74 1.07 1.55 1.32 1.32 1.54 1.06 1.74.8 1.88.47 1.98.16 2v14.45h-1.95v-14.4l-.14-1.75-.4-1.7-.67-1.58-.9-1.48-1.13-1.32-1.3-1.13-1.5-.9-1.58-.66-1.7-.42-1.75-.13h-8.95v-1.96h9.04z" stroke="#fe7070" stroke-width=".05" fill="#fe7070"/><path d="M-401.33-172.1v.3h-1.95v-1.76z" fill="#fe7070"/><path stroke="#fe7070" stroke-width=".05" fill="#fe7070"/><path d="M-481.25-168.2l-14.26-4.63 14.25-4.64z" fill="#fe7070"/><path d="M-480.27-166.85l-18.4-5.98 18.4-5.98zm-12.1-5.98l10.15 3.3v-6.6z" stroke="#fe7070" stroke-width=".05" fill="#fe7070"/><g><use xlink:href="#ai" transform="matrix(1,0,0,1,-465.7108594514015,-146.40887417080714) translate(0.005000000000000782 21.74305555555555)"/></g><path d="M-17.25-186.16h62.12" stroke="#3a414a" fill="none"/><path d="M-17.24-185.7h-.5v-.94h.5z" stroke="#3a414a" stroke-width=".05" fill="#3a414a"/><path d="M59.63-186.16l-14.26 4.63v-9.27z" stroke="#3a414a" fill="#3a414a"/><path d="M273.3-186.16h66.12" stroke="#3a414a" fill="none"/><path d="M273.32-185.7h-.52v-.94h.52z" stroke="#3a414a" stroke-width=".05" fill="#3a414a"/><path d="M354.18-186.16l-14.26 4.63v-9.27z" stroke="#3a414a" fill="#3a414a"/><path d="M555.32-185.2h-45.5v-1.94h45.5zm58.38 0h-28v-1.94h28z" stroke="#fe7070" stroke-width=".05" fill="#fe7070"/><path d="M509.83-185.2h-1.12l.1-.96-.1-.98h1.13z" fill="#fe7070"/><path stroke="#fe7070" stroke-width=".05" fill="#fe7070"/><path d="M628.97-186.16l-14.27 4.63v-9.27z" fill="#fe7070"/><path d="M632.12-186.16l-18.4 5.97v-11.94zm-16.44 3.3l10.13-3.3-10.12-3.3z" stroke="#fe7070" stroke-width=".05" fill="#fe7070"/><g><use xlink:href="#ai" transform="matrix(1,0,0,1,555.3207254739408,-199.74220750414045) translate(0.005000000000000782 21.74305555555555)"/></g><path d="M794.7-186.16h102.52" stroke="#3a414a" fill="none"/><path d="M794.72-185.7h-.52v-.94h.52z" stroke="#3a414a" stroke-width=".05" fill="#3a414a"/><path d="M912-186.16l-14.28 4.63v-9.27z" stroke="#3a414a" fill="#3a414a"/><path d="M1076.1-186.16h62.12" stroke="#3a414a" fill="none"/><path d="M1076.12-185.7h-.52v-.94h.52z" stroke="#3a414a" stroke-width=".05" fill="#3a414a"/><path d="M1153-186.16l-14.28 4.63v-9.27z" stroke="#3a414a" fill="#3a414a"/><path d="M1317.1-186.16h62.12" stroke="#3a414a" fill="none"/><path d="M1317.12-185.7h-.52v-.94h.52z" stroke="#3a414a" stroke-width=".05" fill="#3a414a"/><path d="M1394-186.16l-14.28 4.63v-9.27z" stroke="#3a414a" fill="#3a414a"/><path d="M434.48 66.76l.9 1.48 1.13 1.3 1.32 1.13 1.48.9 1.6.67 1.68.4 1.76.14H573.3v1.95H444.27l-2-.15-1.98-.48-1.9-.78-1.72-1.06-1.55-1.33-1.33-1.54-1.06-1.75-.67-1.6h2.12zm-1.2-27.87h-1.95v-166.23h1.95z" stroke="#54c45e" stroke-width=".05" fill="#54c45e"/><path d="M432.3-128.33l.98-.06v1.1h-1.95v-1.1z" fill="#54c45e"/><path stroke="#54c45e" stroke-width=".05" fill="#54c45e"/><path d="M588.57 73.76L574.3 78.4V69.1z" fill="#54c45e"/><path d="M591.72 73.76l-18.4 5.97V67.78zm-16.44 3.3l10.13-3.3-10.12-3.3z" stroke="#54c45e" stroke-width=".05" fill="#54c45e"/><g><use xlink:href="#ah" transform="matrix(1,0,0,1,413.0810432907206,38.885748814276766) translate(0.004999999999999005 21.74305555555555)"/></g><path d="M1607.66-186.16h61.1" stroke="#3a414a" fill="none"/><path d="M1607.67-185.7h-.5v-.94h.5z" stroke="#3a414a" stroke-width=".05" fill="#3a414a"/><path d="M1683.54-186.16l-14.27 4.63v-9.27z" stroke="#3a414a" fill="#3a414a"/><path d="M835.1 73.76h919.56a12 12 0 0 0 12-12v-190.04" stroke="#3a414a" fill="none"/><path d="M835.12 74.23h-.52v-.95h.52z" stroke="#3a414a" stroke-width=".05" fill="#3a414a"/><path d="M1766.66-143.05l4.63 14.27H1762z" stroke="#3a414a" fill="#3a414a"/><defs><path fill="#3a414a" d="M657 26c-323 0-524-166-541-416h195c15 169 171 246 346 246 202 0 356-106 356-265 5-203-294-238-475-293-239-73-380-191-380-389 0-252 224-419 512-419 294 0 499 171 508 396H992c-17-145-151-228-328-228-193 0-321 102-321 242 0 156 175 211 284 241l149 41c160 44 422 134 422 412 0 244-197 432-541 432" id="aj"/><path fill="#3a414a" d="M598-1118v154H368v674c0 100 37 144 132 144 23 0 62-6 92-12L629-6c-37 13-88 20-134 20-193 0-307-107-307-290v-688H20v-154h168v-266h180v266h230" id="ak"/><path fill="#3a414a" d="M471 26C259 26 90-98 90-318c0-256 228-303 435-329 202-27 287-16 287-108 0-139-79-219-234-219-161 0-248 86-283 164l-173-57c86-203 278-265 451-265 150 0 419 46 419 395V0H815v-152h-12C765-73 660 26 471 26zm31-159c199 0 310-134 310-271v-155c-30 35-226 55-295 64-131 17-246 59-246 186 0 116 97 176 231 176" id="al"/><path fill="#3a414a" d="M158 0v-1118h174v172h12c41-113 157-188 290-188 26 0 70 2 91 3v181c-11-2-60-10-108-10-161 0-279 109-279 260V0H158" id="am"/><g id="a"><use transform="matrix(0.010959201388888886,0,0,0.010959201388888886,0,0)" xlink:href="#aj"/><use transform="matrix(0.010959201388888886,0,0,0.010959201388888886,14.400390624999996,0)" xlink:href="#ak"/><use transform="matrix(0.010959201388888886,0,0,0.010959201388888886,21.85264756944444,0)" xlink:href="#al"/><use transform="matrix(0.010959201388888886,0,0,0.010959201388888886,34.45572916666666,0)" xlink:href="#am"/><use transform="matrix(0.010959201388888886,0,0,0.010959201388888886,43.25596788194443,0)" xlink:href="#ak"/></g><path fill="#3a414a" d="M645 0H180v-1490h484c435 0 692 280 692 742 0 466-257 748-711 748zM370-168h263c363 0 539-218 539-580 0-358-176-574-521-574H370v1154" id="an"/><path fill="#3a414a" d="M628 24c-324 0-524-230-524-574 0-343 198-582 503-582 237 0 487 146 487 559v75H286c9 234 145 362 343 362 132 0 231-58 273-172l174 48C1024-91 857 24 628 24zM287-650h624c-17-190-120-322-304-322-192 0-309 151-320 322" id="ao"/><path fill="#3a414a" d="M678-1118v154H420V0H240v-964H20v-154h220v-149c0-194 155-293 318-293 85 0 141 18 168 30l-50 154c-19-6-47-17-97-17-111 0-159 58-159 166v109h258" id="ap"/><path fill="#3a414a" d="M158 0v-1118h180V0H158zm91-1301c-68 0-125-53-125-119s57-119 125-119c69 0 126 53 126 119s-57 119-126 119" id="aq"/><path fill="#3a414a" d="M338-670V0H158v-1118h173l1 207c72-158 192-221 342-221 226 0 378 139 378 422V0H872v-695c0-172-96-275-252-275-161 0-282 109-282 300" id="ar"/><g id="b"><use transform="matrix(0.010959201388888886,0,0,0.010959201388888886,0,0)" xlink:href="#an"/><use transform="matrix(0.010959201388888886,0,0,0.010959201388888886,16.197699652777775,0)" xlink:href="#ao"/><use transform="matrix(0.010959201388888886,0,0,0.010959201388888886,29.28298611111111,0)" xlink:href="#ap"/><use transform="matrix(0.010959201388888886,0,0,0.010959201388888886,37.590060763888886,0)" xlink:href="#aq"/><use transform="matrix(0.010959201388888886,0,0,0.010959201388888886,43.02582465277777,0)" xlink:href="#ar"/><use transform="matrix(0.010959201388888886,0,0,0.010959201388888886,56.28645833333332,0)" xlink:href="#ao"/></g><path fill="#3a414a" d="M613 24c-304 0-509-231-509-576 0-350 205-580 509-580 305 0 511 230 511 580 0 345-206 576-511 576zm0-161c226 0 329-195 329-415 0-222-103-419-329-419-223 0-326 196-326 419 0 220 103 415 326 415" id="as"/><path fill="#3a414a" d="M611 442c-248 0-391-105-460-228l146-94c47 65 117 165 314 165 178 0 307-82 307-266v-224h-17C863-141 792-18 576-18c-268 0-472-195-472-546 0-346 197-568 476-568 216 0 288 133 326 193h17v-179h175V29c0 289-215 413-487 413zm-5-620c203 0 314-146 314-390 0-237-108-403-314-403-213 0-319 180-319 403 0 230 109 390 319 390" id="at"/><g id="c"><use transform="matrix(0.010959201388888886,0,0,0.010959201388888886,0,0)" xlink:href="#aj"/><use transform="matrix(0.010959201388888886,0,0,0.010959201388888886,14.400390624999996,0)" xlink:href="#ak"/><use transform="matrix(0.010959201388888886,0,0,0.010959201388888886,21.52387152777777,0)" xlink:href="#as"/><use transform="matrix(0.010959201388888886,0,0,0.010959201388888886,34.98177083333332,0)" xlink:href="#am"/><use transform="matrix(0.010959201388888886,0,0,0.010959201388888886,43.43131510416666,0)" xlink:href="#al"/><use transform="matrix(0.010959201388888886,0,0,0.010959201388888886,56.03439670138888,0)" xlink:href="#at"/><use transform="matrix(0.010959201388888886,0,0,0.010959201388888886,69.79915364583331,0)" xlink:href="#ao"/></g><path fill="#3a414a" d="M52 0l541-1490h220L1361 0h-200l-149-416H398L254 0H52zm404-582h497c-103-290-145-390-251-756-108 377-145 460-246 756" id="au"/><path fill="#3a414a" d="M613 24c-304 0-509-231-509-576 0-350 205-580 509-580 216 0 392 114 453 309l-173 49c-33-115-133-197-280-197-223 0-326 196-326 419 0 220 103 415 326 415 150 0 252-85 285-206l172 49C1010-95 832 24 613 24" id="av"/><path fill="#3a414a" d="M537 14c-226 0-379-139-379-422v-710h180v695c0 172 97 275 253 275 160 0 281-109 281-300v-670h181V0H879v-209C806-46 684 14 537 14" id="aw"/><g id="d"><use transform="matrix(0.010959201388888886,0,0,0.010959201388888886,0,0)" xlink:href="#au"/><use transform="matrix(0.010959201388888886,0,0,0.010959201388888886,15.485351562499996,0)" xlink:href="#av"/><use transform="matrix(0.010959201388888886,0,0,0.010959201388888886,28.307617187499993,0)" xlink:href="#av"/><use transform="matrix(0.010959201388888886,0,0,0.010959201388888886,41.129882812499986,0)" xlink:href="#as"/><use transform="matrix(0.010959201388888886,0,0,0.010959201388888886,54.587782118055536,0)" xlink:href="#aw"/><use transform="matrix(0.010959201388888886,0,0,0.010959201388888886,67.85937499999997,0)" xlink:href="#ar"/><use transform="matrix(0.010959201388888886,0,0,0.010959201388888886,81.12000868055553,0)" xlink:href="#ak"/></g><path fill="#3a414a" d="M577 24c-279 0-473-224-473-580 0-354 195-576 474-576 218 0 287 134 324 193h14v-551h180V0H922v-173h-20C865-111 790 24 577 24zm27-161c203 0 314-172 314-421 0-247-108-413-314-413-212 0-317 181-317 413 0 235 108 421 317 421" id="ax"/><g id="e"><use transform="matrix(0.010959201388888886,0,0,0.010959201388888886,0,0)" xlink:href="#al"/><use transform="matrix(0.010959201388888886,0,0,0.010959201388888886,12.60308159722222,0)" xlink:href="#ar"/><use transform="matrix(0.010959201388888886,0,0,0.010959201388888886,25.86371527777777,0)" xlink:href="#ax"/></g><path fill="#3a414a" d="M783 20c-382 0-661-292-661-764 0-473 279-766 661-766 302 0 548 182 601 489h-190c-42-204-217-313-411-313-268 0-476 208-476 590 0 381 209 588 476 588 195 0 369-110 411-313h190c-52 303-296 489-601 489" id="ay"/><g id="f"><use transform="matrix(0.010959201388888886,0,0,0.010959201388888886,0,0)" xlink:href="#ay"/><use transform="matrix(0.010959201388888886,0,0,0.010959201388888886,16.394965277777775,0)" xlink:href="#as"/><use transform="matrix(0.010959201388888886,0,0,0.010959201388888886,29.852864583333325,0)" xlink:href="#ar"/><use transform="matrix(0.010959201388888886,0,0,0.010959201388888886,43.11349826388888,0)" xlink:href="#ak"/><use transform="matrix(0.010959201388888886,0,0,0.010959201388888886,50.565755208333314,0)" xlink:href="#al"/><use transform="matrix(0.010959201388888886,0,0,0.010959201388888886,63.16883680555553,0)" xlink:href="#aq"/><use transform="matrix(0.010959201388888886,0,0,0.010959201388888886,68.60460069444443,0)" xlink:href="#ar"/><use transform="matrix(0.010959201388888886,0,0,0.010959201388888886,81.86523437499999,0)" xlink:href="#ao"/><use transform="matrix(0.010959201388888886,0,0,0.010959201388888886,94.95052083333331,0)" xlink:href="#am"/></g><g id="g"><use transform="matrix(0.010959201388888886,0,0,0.010959201388888886,0,0)" xlink:href="#an"/><use transform="matrix(0.010959201388888886,0,0,0.010959201388888886,16.197699652777775,0)" xlink:href="#ao"/><use transform="matrix(0.010959201388888886,0,0,0.010959201388888886,29.28298611111111,0)" xlink:href="#ap"/><use transform="matrix(0.010959201388888886,0,0,0.010959201388888886,37.590060763888886,0)" xlink:href="#aq"/><use transform="matrix(0.010959201388888886,0,0,0.010959201388888886,43.02582465277777,0)" xlink:href="#ar"/><use transform="matrix(0.010959201388888886,0,0,0.010959201388888886,56.28645833333332,0)" xlink:href="#ao"/></g><path fill="#3a414a" d="M180 0v-1490h901v168H370v510h643v168H370V0H180" id="az"/><path fill="#3a414a" d="M338-1490V0H158v-1490h180" id="aA"/><g id="h"><use transform="matrix(0.010959201388888886,0,0,0.010959201388888886,0,0)" xlink:href="#az"/><use transform="matrix(0.010959201388888886,0,0,0.010959201388888886,12.49348958333333,0)" xlink:href="#aw"/><use transform="matrix(0.010959201388888886,0,0,0.010959201388888886,25.76508246527777,0)" xlink:href="#aA"/><use transform="matrix(0.010959201388888886,0,0,0.010959201388888886,31.20084635416666,0)" xlink:href="#aA"/></g><path fill="#3a414a" d="M180 0v-1490h510c348 0 508 209 508 474 0 266-160 477-507 477H370V0H180zm190-706h312c236 0 327-133 327-310 0-176-91-307-329-307H370v617" id="aB"/><path fill="#3a414a" d="M338-670V0H158v-1490h180v566c73-149 190-208 336-208 226 0 379 139 379 422V0H872v-695c0-172-96-275-252-275-161 0-282 109-282 300" id="aC"/><g id="i"><use transform="matrix(0.010959201388888886,0,0,0.010959201388888886,0,0)" xlink:href="#aB"/><use transform="matrix(0.010959201388888886,0,0,0.010959201388888886,14.334635416666663,0)" xlink:href="#al"/><use transform="matrix(0.010959201388888886,0,0,0.010959201388888886,26.937717013888882,0)" xlink:href="#ak"/><use transform="matrix(0.010959201388888886,0,0,0.010959201388888886,34.280381944444436,0)" xlink:href="#aC"/></g><g id="j"><use transform="matrix(0.010959201388888886,0,0,0.010959201388888886,0,0)" xlink:href="#ap"/><use transform="matrix(0.010959201388888886,0,0,0.010959201388888886,7.649522569444441,0)" xlink:href="#as"/><use transform="matrix(0.010959201388888886,0,0,0.010959201388888886,21.107421874999993,0)" xlink:href="#am"/></g><path fill="#3a414a" d="M180 0v-1490h510c348 0 508 194 508 460 0 198-88 351-276 417L1256 0h-220L726-579c-117 2-238 0-356 1V0H180zm190-747h312c235 0 327-108 327-283 0-177-92-293-329-293H370v576" id="aD"/><path fill="#3a414a" d="M409 0L70-1118h191c89 329 165 560 243 925 75-353 154-601 240-925h192c85 325 161 564 235 922 77-354 157-598 244-922h191L1267 0h-179c-86-307-176-590-250-913C763-588 675-308 588 0H409" id="aE"/><g id="k"><use transform="matrix(0.010959201388888886,0,0,0.010959201388888886,0,0)" xlink:href="#aD"/><use transform="matrix(0.010959201388888886,0,0,0.010959201388888886,14.334635416666663,0)" xlink:href="#al"/><use transform="matrix(0.010959201388888886,0,0,0.010959201388888886,26.937717013888882,0)" xlink:href="#aE"/></g><path fill="#3a414a" d="M600 0L52-1490h200c166 485 304 806 458 1336 156-533 285-846 449-1336h202L819 0H600" id="aF"/><path fill="#3a414a" d="M538 24C308 24 148-78 108-271l171-41c32 123 123 178 257 178 156 0 256-77 256-169 0-77-54-128-164-154l-186-44c-203-48-300-148-300-305 0-192 176-326 414-326 230 0 351 112 402 269l-163 42c-31-80-94-158-238-158-133 0-233 69-233 162 0 83 57 129 188 160l169 40c203 48 298 149 298 302 0 196-179 339-441 339" id="aG"/><g id="l"><use transform="matrix(0.010959201388888886,0,0,0.010959201388888886,0,0)" xlink:href="#ay"/><use transform="matrix(0.010959201388888886,0,0,0.010959201388888886,16.394965277777775,0)" xlink:href="#aj"/><use transform="matrix(0.010959201388888886,0,0,0.010959201388888886,30.79535590277777,0)" xlink:href="#aF"/><use transform="matrix(0.010959201388888886,0,0,0.010959201388888886,45.2615017361111,0)" xlink:href="#aG"/></g><path fill="#3a414a" d="M180 0v-1490h190v1322h690V0H180" id="aH"/><g id="m"><use transform="matrix(0.010959201388888886,0,0,0.010959201388888886,0,0)" xlink:href="#aH"/><use transform="matrix(0.010959201388888886,0,0,0.010959201388888886,12.69075520833333,0)" xlink:href="#aq"/><use transform="matrix(0.010959201388888886,0,0,0.010959201388888886,18.126519097222218,0)" xlink:href="#aG"/><use transform="matrix(0.010959201388888886,0,0,0.010959201388888886,29.973415798611104,0)" xlink:href="#ak"/></g><g id="n"><use transform="matrix(0.010959201388888886,0,0,0.010959201388888886,0,0)" xlink:href="#az"/><use transform="matrix(0.010959201388888886,0,0,0.010959201388888886,13.249674479166664,0)" xlink:href="#aq"/><use transform="matrix(0.010959201388888886,0,0,0.010959201388888886,18.68543836805555,0)" xlink:href="#aA"/><use transform="matrix(0.010959201388888886,0,0,0.010959201388888886,24.121202256944432,0)" xlink:href="#ao"/><use transform="matrix(0.010959201388888886,0,0,0.010959201388888886,37.206488715277764,0)" xlink:href="#aG"/></g><g id="o"><use transform="matrix(0.010959201388888886,0,0,0.010959201388888886,0,0)" xlink:href="#aq"/><use transform="matrix(0.010959201388888886,0,0,0.010959201388888886,5.4357638888888875,0)" xlink:href="#ar"/></g><g id="p"><use transform="matrix(0.010959201388888886,0,0,0.010959201388888886,0,0)" xlink:href="#ak"/><use transform="matrix(0.010959201388888886,0,0,0.010959201388888886,7.342664930555554,0)" xlink:href="#aC"/><use transform="matrix(0.010959201388888886,0,0,0.010959201388888886,20.614257812499993,0)" xlink:href="#ao"/></g><path fill="#3a414a" d="M140 405l46-156c120 36 205 19 263-150l32-93L54-1118h197c107 313 237 620 324 950 87-331 219-637 326-950h196L606 167c-68 178-176 259-334 259-64 0-113-12-132-21" id="aI"/><g id="q"><use transform="matrix(0.010959201388888886,0,0,0.010959201388888886,0,0)" xlink:href="#an"/><use transform="matrix(0.010959201388888886,0,0,0.010959201388888886,16.197699652777775,0)" xlink:href="#aq"/><use transform="matrix(0.010959201388888886,0,0,0.010959201388888886,21.633463541666664,0)" xlink:href="#am"/><use transform="matrix(0.010959201388888886,0,0,0.010959201388888886,29.710394965277775,0)" xlink:href="#ao"/><use transform="matrix(0.010959201388888886,0,0,0.010959201388888886,42.79568142361111,0)" xlink:href="#av"/><use transform="matrix(0.010959201388888886,0,0,0.010959201388888886,55.6179470486111,0)" xlink:href="#ak"/><use transform="matrix(0.010959201388888886,0,0,0.010959201388888886,62.74142795138887,0)" xlink:href="#as"/><use transform="matrix(0.010959201388888886,0,0,0.010959201388888886,76.19932725694443,0)" xlink:href="#am"/><use transform="matrix(0.010959201388888886,0,0,0.010959201388888886,84.9995659722222,0)" xlink:href="#aI"/></g><path fill="#3a414a" d="M370-1490V0H180v-1490h190" id="aJ"/><g id="r"><use transform="matrix(0.010959201388888886,0,0,0.010959201388888886,0,0)" xlink:href="#aJ"/><use transform="matrix(0.010959201388888886,0,0,0.010959201388888886,6.3563368055555545,0)" xlink:href="#ak"/><use transform="matrix(0.010959201388888886,0,0,0.010959201388888886,13.47981770833333,0)" xlink:href="#ao"/><use transform="matrix(0.010959201388888886,0,0,0.010959201388888886,26.56510416666666,0)" xlink:href="#am"/><use transform="matrix(0.010959201388888886,0,0,0.010959201388888886,35.01464843749999,0)" xlink:href="#al"/><use transform="matrix(0.010959201388888886,0,0,0.010959201388888886,47.617730034722214,0)" xlink:href="#ak"/><use transform="matrix(0.010959201388888886,0,0,0.010959201388888886,54.741210937499986,0)" xlink:href="#ao"/></g><path fill="#3a414a" d="M784 20c-382 0-662-292-662-764 0-473 280-766 662-766s660 293 660 766c0 472-278 764-660 764zm0-176c266 0 475-207 475-588 0-383-209-590-475-590-268 0-477 208-477 590 0 380 209 588 477 588" id="aK"/><path fill="#3a414a" d="M481 0L54-1118h197c107 314 236 620 325 951 87-331 217-637 324-951h197L670 0H481" id="aL"/><g id="s"><use transform="matrix(0.010959201388888886,0,0,0.010959201388888886,0,0)" xlink:href="#aK"/><use transform="matrix(0.010959201388888886,0,0,0.010959201388888886,17.162109374999996,0)" xlink:href="#aL"/><use transform="matrix(0.010959201388888886,0,0,0.010959201388888886,29.33778211805555,0)" xlink:href="#ao"/><use transform="matrix(0.010959201388888886,0,0,0.010959201388888886,42.42306857638888,0)" xlink:href="#am"/></g><g id="t"><use transform="matrix(0.010959201388888886,0,0,0.010959201388888886,0,0)" xlink:href="#az"/><use transform="matrix(0.010959201388888886,0,0,0.010959201388888886,13.249674479166664,0)" xlink:href="#aq"/><use transform="matrix(0.010959201388888886,0,0,0.010959201388888886,18.68543836805555,0)" xlink:href="#aA"/><use transform="matrix(0.010959201388888886,0,0,0.010959201388888886,24.121202256944432,0)" xlink:href="#ao"/><use transform="matrix(0.010959201388888886,0,0,0.010959201388888886,37.206488715277764,0)" xlink:href="#aG"/></g><g id="u"><use transform="matrix(0.010959201388888886,0,0,0.010959201388888886,0,0)" xlink:href="#an"/><use transform="matrix(0.010959201388888886,0,0,0.010959201388888886,16.197699652777775,0)" xlink:href="#as"/><use transform="matrix(0.010959201388888886,0,0,0.010959201388888886,29.655598958333325,0)" xlink:href="#ao"/><use transform="matrix(0.010959201388888886,0,0,0.010959201388888886,42.74088541666666,0)" xlink:href="#aG"/></g><path fill="#3a414a" d="M934 0v166H0V0h934" id="aM"/><path fill="#3a414a" d="M158 0v-1118h175l1 205c55-151 181-225 313-225 147 0 245 90 285 228 53-141 190-228 352-228 194 0 352 125 352 384V0h-181v-749c0-161-105-225-225-225-151 0-243 103-243 244V0H807v-767c0-124-93-207-219-207-131 0-250 92-250 270V0H158" id="aN"/><g id="v"><use transform="matrix(0.010959201388888886,0,0,0.010959201388888886,0,0)" xlink:href="#ap"/><use transform="matrix(0.010959201388888886,0,0,0.010959201388888886,8.307074652777775,0)" xlink:href="#aq"/><use transform="matrix(0.010959201388888886,0,0,0.010959201388888886,13.742838541666664,0)" xlink:href="#aA"/><use transform="matrix(0.010959201388888886,0,0,0.010959201388888886,19.17860243055555,0)" xlink:href="#ao"/><use transform="matrix(0.010959201388888886,0,0,0.010959201388888886,32.26388888888888,0)" xlink:href="#aM"/><use transform="matrix(0.010959201388888886,0,0,0.010959201388888886,43.255967881944436,0)" xlink:href="#ar"/><use transform="matrix(0.010959201388888886,0,0,0.010959201388888886,56.516601562499986,0)" xlink:href="#al"/><use transform="matrix(0.010959201388888886,0,0,0.010959201388888886,69.1196831597222,0)" xlink:href="#aN"/><use transform="matrix(0.010959201388888886,0,0,0.010959201388888886,88.78049045138886,0)" xlink:href="#ao"/></g><g id="w"><use transform="matrix(0.010959201388888886,0,0,0.010959201388888886,0,0)" xlink:href="#ao"/><use transform="matrix(0.010959201388888886,0,0,0.010959201388888886,13.08528645833333,0)" xlink:href="#ar"/><use transform="matrix(0.010959201388888886,0,0,0.010959201388888886,26.345920138888882,0)" xlink:href="#ax"/></g><g id="x"><use transform="matrix(0.010959201388888886,0,0,0.010959201388888886,0,0)" xlink:href="#aE"/><use transform="matrix(0.010959201388888886,0,0,0.010959201388888886,18.367621527777775,0)" xlink:href="#aq"/><use transform="matrix(0.010959201388888886,0,0,0.010959201388888886,23.803385416666668,0)" xlink:href="#ak"/><use transform="matrix(0.010959201388888886,0,0,0.010959201388888886,31.14605034722222,0)" xlink:href="#aC"/></g><path fill="#3a414a" d="M295 13c-75 0-135-60-135-135s60-135 135-135 135 60 135 135S370 13 295 13" id="aO"/><path fill="#3a414a" d="M383-449c-3-277 82-343 222-425 88-53 156-134 156-250 0-139-108-227-243-227-118 0-235 70-246 236H82c10-251 200-395 436-395 259 0 427 165 427 393 0 161-74 273-203 352-132 80-180 132-178 316H383zm93 462c-75 0-135-60-135-134 0-75 60-135 135-135 74 0 134 60 134 135 0 74-60 134-134 134" id="aP"/><g id="y"><use transform="matrix(0.010959201388888886,0,0,0.010959201388888886,0,0)" xlink:href="#aO"/><use transform="matrix(0.010959201388888886,0,0,0.010959201388888886,6.465928819444443,0)" xlink:href="#av"/><use transform="matrix(0.010959201388888886,0,0,0.010959201388888886,19.28819444444444,0)" xlink:href="#aG"/><use transform="matrix(0.010959201388888886,0,0,0.010959201388888886,31.135091145833325,0)" xlink:href="#aL"/><use transform="matrix(0.010959201388888886,0,0,0.010959201388888886,43.749131944444436,0)" xlink:href="#aP"/></g><g id="z"><use transform="matrix(0.010959201388888886,0,0,0.010959201388888886,0,0)" xlink:href="#aD"/><use transform="matrix(0.010959201388888886,0,0,0.010959201388888886,14.115451388888886,0)" xlink:href="#ao"/><use transform="matrix(0.010959201388888886,0,0,0.010959201388888886,27.419921874999993,0)" xlink:href="#al"/><use transform="matrix(0.010959201388888886,0,0,0.010959201388888886,40.023003472222214,0)" xlink:href="#ax"/></g><g id="A"><use transform="matrix(0.010959201388888886,0,0,0.010959201388888886,0,0)" xlink:href="#ay"/><use transform="matrix(0.010959201388888886,0,0,0.010959201388888886,16.394965277777775,0)" xlink:href="#aj"/><use transform="matrix(0.010959201388888886,0,0,0.010959201388888886,30.79535590277777,0)" xlink:href="#aF"/></g><g id="B"><use transform="matrix(0.010959201388888886,0,0,0.010959201388888886,0,0)" xlink:href="#az"/><use transform="matrix(0.010959201388888886,0,0,0.010959201388888886,13.249674479166664,0)" xlink:href="#aq"/><use transform="matrix(0.010959201388888886,0,0,0.010959201388888886,18.68543836805555,0)" xlink:href="#aA"/><use transform="matrix(0.010959201388888886,0,0,0.010959201388888886,24.121202256944432,0)" xlink:href="#ao"/></g><g id="C"><use transform="matrix(0.010959201388888886,0,0,0.010959201388888886,0,0)" xlink:href="#aq"/><use transform="matrix(0.010959201388888886,0,0,0.010959201388888886,5.4357638888888875,0)" xlink:href="#ar"/><use transform="matrix(0.010959201388888886,0,0,0.010959201388888886,18.69639756944444,0)" xlink:href="#ak"/><use transform="matrix(0.010959201388888886,0,0,0.010959201388888886,25.819878472222218,0)" xlink:href="#as"/></g><g id="D"><use transform="matrix(0.010959201388888886,0,0,0.010959201388888886,0,0)" xlink:href="#an"/><use transform="matrix(0.010959201388888886,0,0,0.010959201388888886,16.197699652777775,0)" xlink:href="#al"/><use transform="matrix(0.010959201388888886,0,0,0.010959201388888886,28.800781249999993,0)" xlink:href="#ak"/><use transform="matrix(0.010959201388888886,0,0,0.010959201388888886,36.253038194444436,0)" xlink:href="#al"/><use transform="matrix(0.010959201388888886,0,0,0.010959201388888886,48.85611979166666,0)" xlink:href="#az"/><use transform="matrix(0.010959201388888886,0,0,0.010959201388888886,61.448242187499986,0)" xlink:href="#am"/><use transform="matrix(0.010959201388888886,0,0,0.010959201388888886,69.89778645833331,0)" xlink:href="#al"/><use transform="matrix(0.010959201388888886,0,0,0.010959201388888886,82.50086805555553,0)" xlink:href="#aN"/><use transform="matrix(0.010959201388888886,0,0,0.010959201388888886,102.16167534722219,0)" xlink:href="#ao"/></g><g id="E"><use transform="matrix(0.010959201388888886,0,0,0.010959201388888886,0,0)" xlink:href="#an"/><use transform="matrix(0.010959201388888886,0,0,0.010959201388888886,16.197699652777775,0)" xlink:href="#ao"/><use transform="matrix(0.010959201388888886,0,0,0.010959201388888886,29.28298611111111,0)" xlink:href="#aA"/><use transform="matrix(0.010959201388888886,0,0,0.010959201388888886,35.047526041666664,0)" xlink:href="#ak"/><use transform="matrix(0.010959201388888886,0,0,0.010959201388888886,42.4997829861111,0)" xlink:href="#al"/></g><path fill="#3a414a" d="M158 0v-1490h180v865h22l478-493h223L593-638 1096 0H865L456-523 338-412V0H158" id="aQ"/><g id="F"><use transform="matrix(0.010959201388888886,0,0,0.010959201388888886,0,0)" xlink:href="#aH"/><use transform="matrix(0.010959201388888886,0,0,0.010959201388888886,12.69075520833333,0)" xlink:href="#al"/><use transform="matrix(0.010959201388888886,0,0,0.010959201388888886,25.29383680555555,0)" xlink:href="#aQ"/><use transform="matrix(0.010959201388888886,0,0,0.010959201388888886,37.10785590277777,0)" xlink:href="#ao"/></g><path fill="#3a414a" d="M98-1322v-168h1126v168H757V0H567v-1322H98" id="aR"/><path fill="#3a414a" d="M677 24c-213 0-288-135-325-197h-20V0H158v-1490h180v551h14c37-59 106-193 324-193 279 0 474 222 474 576 0 356-194 580-473 580zm-27-161c209 0 317-186 317-421 0-232-105-413-317-413-206 0-314 166-314 413 0 249 111 421 314 421" id="aS"/><g id="G"><use transform="matrix(0.010959201388888886,0,0,0.010959201388888886,0,0)" xlink:href="#aR"/><use transform="matrix(0.010959201388888886,0,0,0.010959201388888886,12.844184027777775,0)" xlink:href="#al"/><use transform="matrix(0.010959201388888886,0,0,0.010959201388888886,25.447265624999993,0)" xlink:href="#aS"/><use transform="matrix(0.010959201388888886,0,0,0.010959201388888886,39.19010416666666,0)" xlink:href="#aA"/><use transform="matrix(0.010959201388888886,0,0,0.010959201388888886,44.62586805555554,0)" xlink:href="#ao"/></g><g id="H"><use transform="matrix(0.010959201388888886,0,0,0.010959201388888886,0,0)" xlink:href="#aB"/><use transform="matrix(0.010959201388888886,0,0,0.010959201388888886,14.334635416666663,0)" xlink:href="#al"/><use transform="matrix(0.010959201388888886,0,0,0.010959201388888886,26.937717013888882,0)" xlink:href="#ak"/><use transform="matrix(0.010959201388888886,0,0,0.010959201388888886,34.280381944444436,0)" xlink:href="#aC"/></g><g id="I"><use transform="matrix(0.010959201388888886,0,0,0.010959201388888886,0,0)" xlink:href="#ao"/><use transform="matrix(0.010959201388888886,0,0,0.010959201388888886,13.304470486111109,0)" xlink:href="#al"/><use transform="matrix(0.010959201388888886,0,0,0.010959201388888886,25.90755208333333,0)" xlink:href="#av"/><use transform="matrix(0.010959201388888886,0,0,0.010959201388888886,38.72981770833333,0)" xlink:href="#aC"/></g><g id="J"><use transform="matrix(0.010959201388888886,0,0,0.010959201388888886,0,0)" xlink:href="#ay"/><use transform="matrix(0.010959201388888886,0,0,0.010959201388888886,16.394965277777775,0)" xlink:href="#aj"/><use transform="matrix(0.010959201388888886,0,0,0.010959201388888886,30.79535590277777,0)" xlink:href="#aF"/></g><g id="K"><use transform="matrix(0.010959201388888886,0,0,0.010959201388888886,0,0)" xlink:href="#ap"/><use transform="matrix(0.010959201388888886,0,0,0.010959201388888886,8.307074652777775,0)" xlink:href="#aq"/><use transform="matrix(0.010959201388888886,0,0,0.010959201388888886,13.742838541666664,0)" xlink:href="#aA"/><use transform="matrix(0.010959201388888886,0,0,0.010959201388888886,19.17860243055555,0)" xlink:href="#ao"/></g><g id="L"><use transform="matrix(0.010959201388888886,0,0,0.010959201388888886,0,0)" xlink:href="#an"/><use transform="matrix(0.010959201388888886,0,0,0.010959201388888886,16.197699652777775,0)" xlink:href="#as"/><use transform="matrix(0.010959201388888886,0,0,0.010959201388888886,29.655598958333325,0)" xlink:href="#ao"/><use transform="matrix(0.010959201388888886,0,0,0.010959201388888886,42.74088541666666,0)" xlink:href="#aG"/></g><path fill="#3a414a" d="M180 0v-1490h908v168H370v486h669v168H370v500h727V0H180" id="aT"/><path fill="#3a414a" d="M65 0l393-574-370-544h210c88 136 192 297 267 435 67-142 176-302 264-435h206L661-564 1053 0H844c-94-144-206-310-287-458C484-308 366-142 273 0H65" id="aU"/><g id="M"><use transform="matrix(0.010959201388888886,0,0,0.010959201388888886,0,0)" xlink:href="#aT"/><use transform="matrix(0.010959201388888886,0,0,0.010959201388888886,13.49077690972222,0)" xlink:href="#aU"/><use transform="matrix(0.010959201388888886,0,0,0.010959201388888886,25.743164062499993,0)" xlink:href="#aq"/><use transform="matrix(0.010959201388888886,0,0,0.010959201388888886,31.178927951388875,0)" xlink:href="#aG"/><use transform="matrix(0.010959201388888886,0,0,0.010959201388888886,43.025824652777764,0)" xlink:href="#ak"/><use transform="matrix(0.010959201388888886,0,0,0.010959201388888886,50.368489583333314,0)" xlink:href="#aP"/></g><g id="N"><use transform="matrix(0.010959201388888886,0,0,0.010959201388888886,0,0)" xlink:href="#ay"/><use transform="matrix(0.010959201388888886,0,0,0.010959201388888886,16.394965277777775,0)" xlink:href="#am"/><use transform="matrix(0.010959201388888886,0,0,0.010959201388888886,24.471896701388882,0)" xlink:href="#ao"/><use transform="matrix(0.010959201388888886,0,0,0.010959201388888886,37.77636718749999,0)" xlink:href="#al"/><use transform="matrix(0.010959201388888886,0,0,0.010959201388888886,50.37944878472221,0)" xlink:href="#ak"/><use transform="matrix(0.010959201388888886,0,0,0.010959201388888886,57.502929687499986,0)" xlink:href="#ao"/></g><path fill="#3a414a" d="M458 0L52-1490h194c108 439 233 855 324 1313 92-459 221-873 331-1313h216c110 438 234 854 330 1307 92-455 216-869 323-1307h196L1558 0h-221l-256-944c-26-95-50-200-73-331-22 122-44 223-73 331L680 0H458" id="aV"/><g id="O"><use transform="matrix(0.010959201388888886,0,0,0.010959201388888886,0,0)" xlink:href="#aV"/><use transform="matrix(0.010959201388888886,0,0,0.010959201388888886,21.35948350694444,0)" xlink:href="#am"/><use transform="matrix(0.010959201388888886,0,0,0.010959201388888886,30.159722222222214,0)" xlink:href="#aq"/><use transform="matrix(0.010959201388888886,0,0,0.010959201388888886,35.5954861111111,0)" xlink:href="#ak"/><use transform="matrix(0.010959201388888886,0,0,0.010959201388888886,42.71896701388887,0)" xlink:href="#ao"/></g><g id="P"><use transform="matrix(0.010959201388888886,0,0,0.010959201388888886,0,0)" xlink:href="#an"/><use transform="matrix(0.010959201388888886,0,0,0.010959201388888886,16.197699652777775,0)" xlink:href="#al"/><use transform="matrix(0.010959201388888886,0,0,0.010959201388888886,28.800781249999993,0)" xlink:href="#ak"/><use transform="matrix(0.010959201388888886,0,0,0.010959201388888886,36.253038194444436,0)" xlink:href="#al"/></g><g id="Q"><use transform="matrix(0.010959201388888886,0,0,0.010959201388888886,0,0)" xlink:href="#ax"/><use transform="matrix(0.010959201388888886,0,0,0.010959201388888886,13.742838541666664,0)" xlink:href="#al"/><use transform="matrix(0.010959201388888886,0,0,0.010959201388888886,26.34592013888889,0)" xlink:href="#ak"/><use transform="matrix(0.010959201388888886,0,0,0.010959201388888886,33.79817708333333,0)" xlink:href="#al"/></g><g id="R"><use transform="matrix(0.010959201388888886,0,0,0.010959201388888886,0,0)" xlink:href="#ap"/><use transform="matrix(0.010959201388888886,0,0,0.010959201388888886,8.307074652777775,0)" xlink:href="#am"/><use transform="matrix(0.010959201388888886,0,0,0.010959201388888886,16.384006076388886,0)" xlink:href="#as"/><use transform="matrix(0.010959201388888886,0,0,0.010959201388888886,29.84190538194444,0)" xlink:href="#aN"/></g><g id="S"><use transform="matrix(0.010959201388888886,0,0,0.010959201388888886,0,0)" xlink:href="#aR"/><use transform="matrix(0.010959201388888886,0,0,0.010959201388888886,12.844184027777775,0)" xlink:href="#al"/><use transform="matrix(0.010959201388888886,0,0,0.010959201388888886,25.447265624999993,0)" xlink:href="#aS"/><use transform="matrix(0.010959201388888886,0,0,0.010959201388888886,39.19010416666666,0)" xlink:href="#aA"/><use transform="matrix(0.010959201388888886,0,0,0.010959201388888886,44.62586805555554,0)" xlink:href="#ao"/></g><g id="T"><use transform="matrix(0.010959201388888886,0,0,0.010959201388888886,0,0)" xlink:href="#aV"/><use transform="matrix(0.010959201388888886,0,0,0.010959201388888886,21.35948350694444,0)" xlink:href="#am"/><use transform="matrix(0.010959201388888886,0,0,0.010959201388888886,30.159722222222214,0)" xlink:href="#aq"/><use transform="matrix(0.010959201388888886,0,0,0.010959201388888886,35.5954861111111,0)" xlink:href="#ak"/><use transform="matrix(0.010959201388888886,0,0,0.010959201388888886,42.71896701388887,0)" xlink:href="#ao"/></g><g id="U"><use transform="matrix(0.010959201388888886,0,0,0.010959201388888886,0,0)" xlink:href="#an"/><use transform="matrix(0.010959201388888886,0,0,0.010959201388888886,16.197699652777775,0)" xlink:href="#al"/><use transform="matrix(0.010959201388888886,0,0,0.010959201388888886,28.800781249999993,0)" xlink:href="#ak"/><use transform="matrix(0.010959201388888886,0,0,0.010959201388888886,36.253038194444436,0)" xlink:href="#al"/></g><g id="V"><use transform="matrix(0.010959201388888886,0,0,0.010959201388888886,0,0)" xlink:href="#ak"/><use transform="matrix(0.010959201388888886,0,0,0.010959201388888886,7.123480902777776,0)" xlink:href="#as"/></g><g id="W"><use transform="matrix(0.010959201388888886,0,0,0.010959201388888886,0,0)" xlink:href="#aH"/><use transform="matrix(0.010959201388888886,0,0,0.010959201388888886,12.69075520833333,0)" xlink:href="#al"/><use transform="matrix(0.010959201388888886,0,0,0.010959201388888886,25.29383680555555,0)" xlink:href="#aQ"/><use transform="matrix(0.010959201388888886,0,0,0.010959201388888886,37.10785590277777,0)" xlink:href="#ao"/></g><g id="X"><use transform="matrix(0.010959201388888886,0,0,0.010959201388888886,0,0)" xlink:href="#an"/><use transform="matrix(0.010959201388888886,0,0,0.010959201388888886,16.197699652777775,0)" xlink:href="#al"/><use transform="matrix(0.010959201388888886,0,0,0.010959201388888886,28.800781249999993,0)" xlink:href="#ak"/><use transform="matrix(0.010959201388888886,0,0,0.010959201388888886,36.253038194444436,0)" xlink:href="#al"/><use transform="matrix(0.010959201388888886,0,0,0.010959201388888886,48.85611979166666,0)" xlink:href="#aS"/><use transform="matrix(0.010959201388888886,0,0,0.010959201388888886,62.8181423611111,0)" xlink:href="#al"/><use transform="matrix(0.010959201388888886,0,0,0.010959201388888886,75.42122395833331,0)" xlink:href="#aG"/><use transform="matrix(0.010959201388888886,0,0,0.010959201388888886,87.2681206597222,0)" xlink:href="#ao"/></g><g id="Y"><use transform="matrix(0.010959201388888886,0,0,0.010959201388888886,0,0)" xlink:href="#aB"/><use transform="matrix(0.010959201388888886,0,0,0.010959201388888886,14.334635416666663,0)" xlink:href="#am"/><use transform="matrix(0.010959201388888886,0,0,0.010959201388888886,23.13487413194444,0)" xlink:href="#aq"/><use transform="matrix(0.010959201388888886,0,0,0.010959201388888886,28.570638020833325,0)" xlink:href="#ar"/><use transform="matrix(0.010959201388888886,0,0,0.010959201388888886,41.83127170138888,0)" xlink:href="#ak"/></g><path fill="#3a414a" d="M295 13c-75 0-135-60-135-135s60-135 135-135 135 60 135 135S370 13 295 13zm0-809c-75 0-135-60-135-135s60-135 135-135 135 60 135 135-60 135-135 135" id="aW"/><g id="Z"><use transform="matrix(0.010959201388888886,0,0,0.010959201388888886,0,0)" xlink:href="#aN"/><use transform="matrix(0.010959201388888886,0,0,0.010959201388888886,19.66080729166666,0)" xlink:href="#ao"/><use transform="matrix(0.010959201388888886,0,0,0.010959201388888886,32.74609374999999,0)" xlink:href="#aG"/><use transform="matrix(0.010959201388888886,0,0,0.010959201388888886,44.59299045138888,0)" xlink:href="#aG"/><use transform="matrix(0.010959201388888886,0,0,0.010959201388888886,56.439887152777764,0)" xlink:href="#al"/><use transform="matrix(0.010959201388888886,0,0,0.010959201388888886,69.04296874999999,0)" xlink:href="#at"/><use transform="matrix(0.010959201388888886,0,0,0.010959201388888886,82.80772569444443,0)" xlink:href="#ao"/><use transform="matrix(0.010959201388888886,0,0,0.010959201388888886,95.89301215277776,0)" xlink:href="#aW"/></g><g id="aa"><use transform="matrix(0.010959201388888886,0,0,0.010959201388888886,0,0)" xlink:href="#an"/><use transform="matrix(0.010959201388888886,0,0,0.010959201388888886,16.197699652777775,0)" xlink:href="#ao"/><use transform="matrix(0.010959201388888886,0,0,0.010959201388888886,29.28298611111111,0)" xlink:href="#aA"/><use transform="matrix(0.010959201388888886,0,0,0.010959201388888886,35.047526041666664,0)" xlink:href="#ak"/><use transform="matrix(0.010959201388888886,0,0,0.010959201388888886,42.4997829861111,0)" xlink:href="#al"/></g><g id="ab"><use transform="matrix(0.010959201388888886,0,0,0.010959201388888886,0,0)" xlink:href="#ak"/><use transform="matrix(0.010959201388888886,0,0,0.010959201388888886,7.452256944444443,0)" xlink:href="#al"/><use transform="matrix(0.010959201388888886,0,0,0.010959201388888886,20.055338541666664,0)" xlink:href="#aS"/><use transform="matrix(0.010959201388888886,0,0,0.010959201388888886,33.79817708333333,0)" xlink:href="#aA"/><use transform="matrix(0.010959201388888886,0,0,0.010959201388888886,39.233940972222214,0)" xlink:href="#ao"/></g><g id="ac"><use transform="matrix(0.010959201388888886,0,0,0.010959201388888886,0,0)" xlink:href="#av"/><use transform="matrix(0.010959201388888886,0,0,0.010959201388888886,12.822265624999996,0)" xlink:href="#am"/><use transform="matrix(0.010959201388888886,0,0,0.010959201388888886,20.899197048611107,0)" xlink:href="#ao"/><use transform="matrix(0.010959201388888886,0,0,0.010959201388888886,34.203667534722214,0)" xlink:href="#al"/><use transform="matrix(0.010959201388888886,0,0,0.010959201388888886,46.806749131944436,0)" xlink:href="#ak"/><use transform="matrix(0.010959201388888886,0,0,0.010959201388888886,53.93023003472221,0)" xlink:href="#ao"/><use transform="matrix(0.010959201388888886,0,0,0.010959201388888886,67.01551649305554,0)" xlink:href="#ax"/></g><g id="ad"><use transform="matrix(0.010959201388888886,0,0,0.010959201388888886,0,0)" xlink:href="#al"/><use transform="matrix(0.010959201388888886,0,0,0.010959201388888886,12.60308159722222,0)" xlink:href="#aA"/><use transform="matrix(0.010959201388888886,0,0,0.010959201388888886,18.038845486111107,0)" xlink:href="#am"/><use transform="matrix(0.010959201388888886,0,0,0.010959201388888886,26.115776909722218,0)" xlink:href="#ao"/><use transform="matrix(0.010959201388888886,0,0,0.010959201388888886,39.42024739583333,0)" xlink:href="#al"/><use transform="matrix(0.010959201388888886,0,0,0.010959201388888886,52.02332899305556,0)" xlink:href="#ax"/><use transform="matrix(0.010959201388888886,0,0,0.010959201388888886,65.8757595486111,0)" xlink:href="#aI"/></g><path fill="#3a414a" d="M128 359l88-567h206L266 359H128" id="aX"/><g id="ae"><use transform="matrix(0.010959201388888886,0,0,0.010959201388888886,0,0)" xlink:href="#ao"/><use transform="matrix(0.010959201388888886,0,0,0.010959201388888886,12.581163194444441,0)" xlink:href="#aU"/><use transform="matrix(0.010959201388888886,0,0,0.010959201388888886,24.833550347222218,0)" xlink:href="#aq"/><use transform="matrix(0.010959201388888886,0,0,0.010959201388888886,30.2693142361111,0)" xlink:href="#aG"/><use transform="matrix(0.010959201388888886,0,0,0.010959201388888886,42.116210937499986,0)" xlink:href="#ak"/><use transform="matrix(0.010959201388888886,0,0,0.010959201388888886,49.23969184027776,0)" xlink:href="#aG"/><use transform="matrix(0.010959201388888886,0,0,0.010959201388888886,61.08658854166664,0)" xlink:href="#aX"/></g><path fill="#3a414a" d="M158 418v-1536h174v179h20c37-59 106-193 324-193 279 0 474 222 474 576 0 356-194 580-473 580-213 0-288-135-325-197h-14v591H158zm492-555c209 0 317-186 317-421 0-232-105-413-317-413-206 0-314 166-314 413 0 249 111 421 314 421" id="aY"/><g id="af"><use transform="matrix(0.010959201388888886,0,0,0.010959201388888886,0,0)" xlink:href="#aG"/><use transform="matrix(0.010959201388888886,0,0,0.010959201388888886,11.846896701388886,0)" xlink:href="#aQ"/><use transform="matrix(0.010959201388888886,0,0,0.010959201388888886,24.165039062499993,0)" xlink:href="#aq"/><use transform="matrix(0.010959201388888886,0,0,0.010959201388888886,29.60080295138888,0)" xlink:href="#aY"/><use transform="matrix(0.010959201388888886,0,0,0.010959201388888886,43.34364149305554,0)" xlink:href="#aY"/><use transform="matrix(0.010959201388888886,0,0,0.010959201388888886,57.08648003472221,0)" xlink:href="#aq"/><use transform="matrix(0.010959201388888886,0,0,0.010959201388888886,62.5222439236111,0)" xlink:href="#ar"/><use transform="matrix(0.010959201388888886,0,0,0.010959201388888886,75.78287760416664,0)" xlink:href="#at"/><use transform="matrix(0.010959201388888886,0,0,0.010959201388888886,89.54763454861109,0)" xlink:href="#aO"/><use transform="matrix(0.010959201388888886,0,0,0.010959201388888886,96.01356336805553,0)" xlink:href="#aO"/><use transform="matrix(0.010959201388888886,0,0,0.010959201388888886,102.47949218749997,0)" xlink:href="#aO"/></g><g id="ag"><use transform="matrix(0.010959201388888886,0,0,0.010959201388888886,0,0)" xlink:href="#aT"/><use transform="matrix(0.010959201388888886,0,0,0.010959201388888886,13.49077690972222,0)" xlink:href="#ar"/><use transform="matrix(0.010959201388888886,0,0,0.010959201388888886,26.75141059027777,0)" xlink:href="#ax"/></g><path fill="#3a414a" d="M600 0v-610L52-1490h220l295 481c50 82 90 150 130 243 40-96 80-164 128-243l294-481h219L790-610V0H600" id="aZ"/><g id="ah"><use transform="matrix(0.010959201388888886,0,0,0.010959201388888886,0,0)" xlink:href="#aZ"/><use transform="matrix(0.010959201388888886,0,0,0.010959201388888886,13.512695312499996,0)" xlink:href="#ao"/><use transform="matrix(0.010959201388888886,0,0,0.010959201388888886,26.59798177083333,0)" xlink:href="#aG"/></g><path fill="#3a414a" d="M180 0v-1490h224l606 953c40 63 108 177 176 312-27-437-7-821-13-1265h190V0h-226C860-448 622-778 356-1262c27 476 11 792 15 1262H180" id="ba"/><g id="ai"><use transform="matrix(0.010959201388888886,0,0,0.010959201388888886,0,0)" xlink:href="#ba"/><use transform="matrix(0.010959201388888886,0,0,0.010959201388888886,16.91004774305555,0)" xlink:href="#as"/></g></defs></g></svg>